<?xml version="1.0" encoding="UTF-8"?>
<svg version="1.1" xmlns="http://www.w3.org/2000/svg" width="500" height="500">
<path d="M0 0 C165 0 330 0 500 0 C500 165 500 330 500 500 C335 500 170 500 0 500 C0 335 0 170 0 0 Z " fill="#FEFEFE" transform="translate(0,0)"/>
<path d="M0 0 C1.04148193 0.32145996 1.04148193 0.32145996 2.10400391 0.64941406 C24.62732767 7.62732767 24.62732767 7.62732767 32 15 C32 31.17 32 47.34 32 64 C-15.85 64 -63.7 64 -113 64 C-113 47.83 -113 31.66 -113 15 C-108.33875 14.443125 -103.6775 13.88625 -98.875 13.3125 C-80.91593434 10.86074102 -64.33672834 5.28530653 -47.40388489 -1.03248596 C-32.1506295 -6.71811958 -15.24552947 -4.99193265 0 0 Z " fill="#2B2B2B" transform="translate(216,140)"/>
<path d="M0 0 C21.19348938 7.96947029 40.42513996 12.54621087 63 15 C63 31.17 63 47.34 63 64 C15.48 64 -32.04 64 -81 64 C-81 47.5 -81 31 -81 14 C-58.36530954 2.08700502 -58.36530954 2.08700502 -48 -1 C-47.01773438 -1.31710938 -46.03546875 -1.63421875 -45.0234375 -1.9609375 C-30.39894727 -6.07997997 -14.06577105 -5.62006391 0 0 Z " fill="#2A2A2A" transform="translate(336,140)"/>
<path d="M0 0 C3.96 0 7.92 0 12 0 C12 22.11 12 44.22 12 67 C43.35353454 62.16244022 43.35353454 62.16244022 73.7109375 53.2890625 C102.95681361 42.83117182 131.59177179 52.18893224 159 64 C159.7022168 64.37012207 160.40443359 64.74024414 161.12792969 65.12158203 C163.8415707 66.39488411 165.14916797 65.89469764 168 65 C170.64915467 63.83852221 173.22566234 62.54312407 175.8125 61.25 C192.30341894 53.29089061 209.63983553 48.7975924 228 48.6875 C229.14722534 48.67916138 229.14722534 48.67916138 230.31762695 48.6706543 C239.48301579 48.78727752 247.77351193 51.48807431 256.4375 54.25 C264.91457768 56.87788717 273.42327085 59.21632116 282.0625 61.25 C283.02792725 61.48364258 283.99335449 61.71728516 284.98803711 61.95800781 C295.63183808 64.39236916 306.04762036 65.50649369 317 67 C317 44.89 317 22.78 317 0 C320.63 0 324.26 0 328 0 C328 28.71 328 57.42 328 87 C311.66706731 85.83336195 311.66706731 85.83336195 305.1875 84.6875 C304.43452637 84.55706299 303.68155273 84.42662598 302.90576172 84.29223633 C284.9937897 81.09754209 267.15032876 76.38324204 250.19140625 69.76171875 C226.23491593 61.43459645 195.73779322 72.84163391 174 83 C173.31228516 83.37479492 172.62457031 83.74958984 171.91601562 84.13574219 C171.22701172 84.51118164 170.53800781 84.88662109 169.828125 85.2734375 C169.21356445 85.62583496 168.59900391 85.97823242 167.96582031 86.34130859 C163.72951876 87.76077476 159.71919166 85.5858019 155.82421875 83.890625 C154.839375 83.46789307 153.85453125 83.04516113 152.83984375 82.60961914 C151.79957031 82.16094482 150.75929687 81.71227051 149.6875 81.25 C120.47963196 68.90275902 95.51310501 63.81346037 65 74 C52.56044119 78.12658441 40.40157676 81.33704997 27.47314453 83.56201172 C25.11886283 83.97894966 22.77665366 84.43456691 20.43359375 84.91015625 C19.72356201 85.05235596 19.01353027 85.19455566 18.28198242 85.34106445 C16.40101308 85.71960869 14.52078509 86.10183161 12.640625 86.484375 C9 87 9 87 0 87 C0 58.29 0 29.58 0 0 Z " fill="#2B2B2B" transform="translate(86,277)"/>
<path d="M0 0 C47.52 0 95.04 0 144 0 C144 20.13 144 40.26 144 61 C134.99319728 61 134.99319728 61 130.671875 60.08203125 C129.71764648 59.8823877 128.76341797 59.68274414 127.78027344 59.47705078 C126.7802832 59.25774902 125.78029297 59.03844727 124.75 58.8125 C123.69586914 58.58546387 122.64173828 58.35842773 121.55566406 58.12451172 C118.36725025 57.42989642 115.18306262 56.71870733 112 56 C110.64261719 55.69570068 110.64261719 55.69570068 109.2578125 55.38525391 C100.812423 53.46482624 92.67563566 51.33324766 84.61083984 48.15283203 C62.19983379 39.44991336 38.41795326 44.10215332 16.77734375 53.27734375 C11.1758817 55.83188849 5.58982125 58.4200825 0 61 C0 40.87 0 20.74 0 0 Z " fill="#292929" transform="translate(255,277)"/>
<path d="M0 0 C47.52 0 95.04 0 144 0 C144 19.8 144 39.6 144 60 C140.41753357 58.80584452 137.10207948 57.68334385 133.6796875 56.1953125 C132.90294678 55.86096191 132.12620605 55.52661133 131.32592773 55.18212891 C130.51712158 54.83327637 129.70831543 54.48442383 128.875 54.125 C102.788126 43.03302199 80.14400961 40.22867561 53.12426758 50.07324219 C41.59176109 54.27503186 30.07949328 56.92137036 18 59 C17.27393555 59.12842285 16.54787109 59.2568457 15.79980469 59.38916016 C10.44363968 60.32642349 5.44757054 61 0 61 C0 40.87 0 20.74 0 0 Z " fill="#2A2A2A" transform="translate(103,277)"/>
<path d="M0 0 C3.96665053 2.7877509 7.06361533 6.22879316 9.234375 10.5703125 C9.729375 4.1353125 9.729375 4.1353125 10.234375 -2.4296875 C14.60974787 -2.51071292 18.98361585 -2.57020849 23.359375 -2.6171875 C25.215625 -2.65489258 25.215625 -2.65489258 27.109375 -2.69335938 C28.30820312 -2.70302734 29.50703125 -2.71269531 30.7421875 -2.72265625 C31.84191895 -2.7383667 32.94165039 -2.75407715 34.07470703 -2.77026367 C39.03958264 -2.2351067 42.30798223 -0.19496848 46.109375 2.9453125 C49.23482537 6.94790539 48.74896929 11.58399383 48.703125 16.44921875 C48.08108778 20.59094991 46.22866479 23.17608492 43.8359375 26.53125 C42.93528309 28.73749067 42.93528309 28.73749067 44.5703125 31.296875 C45.24320312 32.25335938 45.91609375 33.20984375 46.609375 34.1953125 C50.234375 39.41587235 50.234375 39.41587235 50.234375 41.5703125 C45.284375 41.5703125 40.334375 41.5703125 35.234375 41.5703125 C30.234375 32.8203125 30.234375 32.8203125 30.234375 30.5703125 C27.924375 30.5703125 25.614375 30.5703125 23.234375 30.5703125 C23.234375 34.2003125 23.234375 37.8303125 23.234375 41.5703125 C18.944375 41.5703125 14.654375 41.5703125 10.234375 41.5703125 C9.904375 36.9503125 9.574375 32.3303125 9.234375 27.5703125 C8.368125 28.9728125 7.501875 30.3753125 6.609375 31.8203125 C2.58259067 37.81344712 -1.73372778 40.77560968 -8.765625 42.25390625 C-15.22531822 43.2758499 -20.95682534 42.5642315 -26.765625 39.5703125 C-31.90046819 35.58729201 -35.15847375 31.95933251 -36.765625 25.5703125 C-37.03125 22.28125 -37.03125 22.28125 -37.015625 18.9453125 C-37.02335937 17.28628906 -37.02335937 17.28628906 -37.03125 15.59375 C-36.765625 12.5703125 -36.765625 12.5703125 -34.765625 8.5703125 C-38.395625 8.5703125 -42.025625 8.5703125 -45.765625 8.5703125 C-45.765625 19.4603125 -45.765625 30.3503125 -45.765625 41.5703125 C-50.055625 41.5703125 -54.345625 41.5703125 -58.765625 41.5703125 C-58.765625 30.6803125 -58.765625 19.7903125 -58.765625 8.5703125 C-63.055625 8.5703125 -67.345625 8.5703125 -71.765625 8.5703125 C-71.765625 4.9403125 -71.765625 1.3103125 -71.765625 -2.4296875 C-58.895625 -2.4296875 -46.025625 -2.4296875 -32.765625 -2.4296875 C-32.270625 0.5403125 -32.270625 0.5403125 -31.765625 3.5703125 C-30.734375 2.7865625 -29.703125 2.0028125 -28.640625 1.1953125 C-19.64027845 -5.13361645 -9.56081343 -5.32847882 0 0 Z " fill="#060606" transform="translate(357.765625,220.4296875)"/>
<path d="M0 0 C4.29 0 8.58 0 13 0 C13 10.89 13 21.78 13 33 C18.61 33 24.22 33 30 33 C30 22.11 30 11.22 30 0 C34.29 0 38.58 0 43 0 C43 10.89 43 21.78 43 33 C51.415 32.505 51.415 32.505 60 32 C61.39025391 28.66068359 61.39025391 28.66068359 62.80859375 25.25390625 C63.70489227 23.10579025 64.60203793 20.95802995 65.49926758 18.81030273 C66.12385391 17.31392846 66.74755462 15.81718421 67.37036133 14.32006836 C68.2641281 12.17204177 69.16103935 10.02535244 70.05859375 7.87890625 C70.3377916 7.20598038 70.61698944 6.5330545 70.90464783 5.83973694 C72.88612829 1.11387171 72.88612829 1.11387171 74 0 C76.18639453 -0.07258946 78.37500389 -0.08373783 80.5625 -0.0625 C82.35880859 -0.04896484 82.35880859 -0.04896484 84.19140625 -0.03515625 C85.11824219 -0.02355469 86.04507813 -0.01195312 87 0 C91.07768935 7.76730481 94.54950752 15.74784472 97.93139648 23.83422852 C98.82218323 25.96061473 99.72236756 28.08286619 100.62304688 30.20507812 C101.19327672 31.56226133 101.76295883 32.91967483 102.33203125 34.27734375 C102.60070511 34.90857651 102.86937897 35.53980927 103.14619446 36.19017029 C104.30386598 38.97913118 105 40.94450319 105 44 C100.38 44 95.76 44 91 44 C90.34 41.69 89.68 39.38 89 37 C80.585 37.495 80.585 37.495 72 38 C71.01 39.98 70.02 41.96 69 44 C46.23 44 23.46 44 0 44 C0 29.48 0 14.96 0 0 Z " fill="#0D0D0D" transform="translate(187,218)"/>
<path d="M0 0 C0.99 0.66 1.98 1.32 3 2 C3 0.68 3 -0.64 3 -2 C7.29 -2 11.58 -2 16 -2 C16.495 4.93 16.495 4.93 17 12 C18.81527107 10.04417252 20.62728891 8.08550123 22.4375 6.125 C22.95376953 5.56941406 23.47003906 5.01382813 24.00195312 4.44140625 C26.82104736 1.45250685 26.82104736 1.45250685 29 -2 C38.24 -2 47.48 -2 57 -2 C57 11.53 57 25.06 57 39 C56.67 39 56.34 39 56 39 C56 26.13 56 13.26 56 0 C52.7 0 49.4 0 46 0 C46 12.87 46 25.74 46 39 C45.67 39 45.34 39 45 39 C44.67 26.13 44.34 13.26 44 0 C40.535 3.96 40.535 3.96 37 8 C36.01 7.01 36.01 7.01 35 6 C36.65 4.02 38.3 2.04 40 0 C34.91953678 -0.24582887 32.30166428 -0.13044387 28.38671875 3.26953125 C25.82533453 6.11076322 23.39047599 9.01393084 21 12 C19.01668335 14.34866445 17.01333261 16.67692391 15 19 C14.67 19 14.34 19 14 19 C14 12.73 14 6.46 14 0 C11.03 0 8.06 0 5 0 C5 13.2 5 26.4 5 40 C7.97 40 10.94 40 14 40 C14 37.03 14 34.06 14 31 C14.33 31 14.66 31 15 31 C15 34.63 15 38.26 15 42 C11.04 42 7.08 42 3 42 C2.505 38.04 2.505 38.04 2 34 C1.319375 34.928125 0.63875 35.85625 -0.0625 36.8125 C-3.69993703 41.08648851 -7.31386431 42.69654534 -12.80078125 43.31640625 C-22.01560962 43.67937916 -28.36635143 40.92493456 -36 36 C-34.7702107 31.93223538 -33.238962 28.60074162 -31 25 C-30.29875 25.3609375 -29.5975 25.721875 -28.875 26.09375 C-22.90482227 29.01394563 -18.64864975 30.62723111 -12 30 C-12.33 29.01 -12.66 28.02 -13 27 C-15.85252384 25.88792075 -15.85252384 25.88792075 -19.25 25.0625 C-24.74912901 23.62551041 -28.823318 21.90224266 -32.3125 17.25 C-33.8407498 12.24845519 -33.64813729 8.40429746 -31.5 3.75 C-22.98280054 -5.6189194 -10.98686719 -4.46853927 0 0 Z " fill="#070707" transform="translate(127,220)"/>
<path d="M0 0 C0.66 0.33 1.32 0.66 2 1 C5.3 1 8.6 1 12 1 C12.33 14.86 12.66 28.72 13 43 C-11.34225957 44.52874094 -11.34225957 44.52874094 -16.16210938 41.75634766 C-19.61261741 38.42023819 -21.48829599 34.50615217 -23 30 C-23 29.34 -23 28.68 -23 28 C-25.08070139 29.08908978 -25.08070139 29.08908978 -27 31 C-27.69952489 33.95551526 -27.69952489 33.95551526 -27.75 37.1875 C-27.80671875 38.27417969 -27.8634375 39.36085938 -27.921875 40.48046875 C-27.94765625 41.31191406 -27.9734375 42.14335937 -28 43 C-28.66 42.34 -29.32 41.68 -30 41 C-32.97 41 -35.94 41 -39 41 C-39 27.8 -39 14.6 -39 1 C-36.03 1 -33.06 1 -30 1 C-29.67 6.94 -29.34 12.88 -29 19 C-26.710625 16.4940625 -26.710625 16.4940625 -24.375 13.9375 C-23.62271118 13.12273193 -23.62271118 13.12273193 -22.85522461 12.29150391 C-20.35740201 9.57247726 -18.1043166 6.79570926 -15.9375 3.8125 C-14.15917376 1.66005902 -13.42080616 1.07511912 -10.63671875 0.578125 C-8.37653089 0.56406473 -6.23652766 0.68688613 -4 1 C-5.20381448 3.49361571 -6.45428722 5.68143083 -8 8 C-4.80800833 5.58443874 -2.25283313 3.31996462 0 0 Z " fill="#171717" transform="translate(171,219)"/>
<path d="M0 0 C4.95790549 2.57447202 7.66268873 5.89142192 10.3125 10.8125 C12.0871727 17.42718916 10.76563377 23.27727734 8 29.375 C5.67231582 33.30563152 2.65181507 36.30739846 -1.71875 37.8984375 C-8.63149531 39.3425384 -16.38584537 39.89821673 -22.625 36.1875 C-26.82799086 33.0083146 -29.95716835 29.2450417 -32 24.375 C-32.93256519 17.50346704 -32.66717526 11.74501171 -28.5 6.0625 C-20.99849499 -2.37669314 -10.6106938 -4.30501213 0 0 Z " fill="#F5F5F5" transform="translate(355,221.625)"/>
<path d="M0 0 C3.795 -0.103125 7.59 -0.20625 11.5 -0.3125 C12.68013672 -0.35802002 13.86027344 -0.40354004 15.07617188 -0.45043945 C21.93670463 -0.54019153 26.82130142 0.26881218 32 5 C34.97332099 9.45998149 34.62682975 13.76895653 34 19 C32.70675626 22.15380666 31.12289503 24.43855248 28 26 C28.65902299 29.57040303 30.16229158 32.17732255 32.0625 35.25 C32.61035156 36.14203125 33.15820312 37.0340625 33.72265625 37.953125 C34.35494141 38.96632813 34.35494141 38.96632813 35 40 C31.7 40 28.4 40 25 40 C24.68289063 39.21753906 24.36578125 38.43507813 24.0390625 37.62890625 C22.57285987 34.44943369 21.18235109 31.74498848 19 29 C15.37738977 27.68464748 12.93112878 27.84062991 9 28 C9 31.96 9 35.92 9 40 C6.03 40 3.06 40 0 40 C0 26.8 0 13.6 0 0 Z " fill="#F5F5F5" transform="translate(370,220)"/>
<path d="M0 0 C1.37478516 0.01740234 1.37478516 0.01740234 2.77734375 0.03515625 C3.69644531 0.04417969 4.61554688 0.05320313 5.5625 0.0625 C6.27277344 0.07410156 6.98304688 0.08570313 7.71484375 0.09765625 C9.99803687 5.4709023 12.27657889 10.846087 14.55078125 16.22314453 C15.32553756 18.05311633 16.10157534 19.88254613 16.87890625 21.71142578 C17.99423994 24.33615877 19.10499173 26.96278903 20.21484375 29.58984375 C20.56482422 30.41072479 20.91480469 31.23160583 21.27539062 32.07736206 C23.71484375 37.86991284 23.71484375 37.86991284 23.71484375 40.09765625 C20.74484375 40.09765625 17.77484375 40.09765625 14.71484375 40.09765625 C13.72484375 37.78765625 12.73484375 35.47765625 11.71484375 33.09765625 C5.11484375 32.76765625 -1.48515625 32.43765625 -8.28515625 32.09765625 C-8.78015625 34.57265625 -8.78015625 34.57265625 -9.28515625 37.09765625 C-9.61515625 38.08765625 -9.94515625 39.07765625 -10.28515625 40.09765625 C-12.59515625 40.09765625 -14.90515625 40.09765625 -17.28515625 40.09765625 C-17.63453048 34.51758637 -16.55255774 30.45135393 -14.2578125 25.44921875 C-13.79525307 24.40222305 -13.79525307 24.40222305 -13.323349 23.33407593 C-12.34342886 21.12470068 -11.34562685 18.9239273 -10.34765625 16.72265625 C-9.68050837 15.22185697 -9.01448124 13.72055896 -8.34960938 12.21875 C-2.96593776 0.12674948 -2.96593776 0.12674948 0 0 Z " fill="#F5F5F5" transform="translate(265.28515625,219.90234375)"/>
<path d="M0 0 C2.97 0 5.94 0 9 0 C9.33 5.94 9.66 11.88 10 18 C12.289375 15.4940625 12.289375 15.4940625 14.625 12.9375 C15.37728882 12.12273193 15.37728882 12.12273193 16.14477539 11.29150391 C18.64259799 8.57247726 20.8956834 5.79570926 23.0625 2.8125 C24.84082624 0.66005902 25.57919384 0.07511912 28.36328125 -0.421875 C30.62346911 -0.43593527 32.76347234 -0.31311387 35 0 C33.3383196 4.12417063 30.37661982 7.06554039 27.375 10.25 C26.859375 10.80429688 26.34375 11.35859375 25.8125 11.9296875 C24.54574965 13.2902712 23.27342185 14.64565837 22 16 C26.38861487 22.96692611 30.87847655 29.84716273 35.49609375 36.6640625 C37 39 37 39 37 40 C33.51925229 40.56728484 30.46350102 40.74326226 27 40 C23.99733328 37.41421384 22.06436145 34.35664076 20 31 C19.18947989 29.85276531 18.37733408 28.70667468 17.5625 27.5625 C16 25 16 25 16 23 C15.34 23 14.68 23 14 23 C13.71125 23.61875 13.4225 24.2375 13.125 24.875 C12 27 12 27 10 29 C9.53709779 31.66242821 9.53709779 31.66242821 9.375 34.625 C9.30023438 35.62789062 9.22546875 36.63078125 9.1484375 37.6640625 C9.09945312 38.43492187 9.05046875 39.20578125 9 40 C6.03 40 3.06 40 0 40 C0 26.8 0 13.6 0 0 Z " fill="#F8F8F8" transform="translate(132,220)"/>
<path d="M0 0 C0.7425 -0.01611328 1.485 -0.03222656 2.25 -0.04882812 C7.12275633 -0.05313268 10.34902967 0.74013055 14.625 3.3125 C14.02316251 5.33295442 13.35193904 7.33361039 12.625 9.3125 C11.635 9.8075 11.635 9.8075 10.625 10.3125 C8.96352189 9.54822007 7.3020501 8.78392641 5.640625 8.01953125 C2.22758139 6.82232022 -0.78679279 7.06503743 -4.375 7.3125 C-5.67133621 8.37895115 -5.67133621 8.37895115 -5.4375 10.875 C-5.416875 11.679375 -5.39625 12.48375 -5.375 13.3125 C-4.18261719 13.77140625 -2.99023438 14.2303125 -1.76171875 14.703125 C-0.19506185 15.32228282 1.37133078 15.94210961 2.9375 16.5625 C3.72318359 16.86285156 4.50886719 17.16320312 5.31835938 17.47265625 C12.76443333 20.45108583 12.76443333 20.45108583 14.625 24.3125 C15.51347788 28.78690662 15.21123322 32.32846566 12.875 36.25 C7.65036058 41.0392528 2.33439773 40.87453934 -4.51171875 40.71484375 C-9.89682482 40.15400864 -13.89497288 38.26404728 -18.375 35.3125 C-17.385 32.3425 -17.385 32.3425 -16.375 29.3125 C-13.17314909 29.3125 -12.35320666 29.75525149 -9.6875 31.3125 C-5.3312902 33.5912567 -2.24616183 33.73242774 2.625 33.3125 C3.615 32.8175 3.615 32.8175 4.625 32.3125 C4.625 30.6625 4.625 29.0125 4.625 27.3125 C4.07972656 27.07015625 3.53445312 26.8278125 2.97265625 26.578125 C1.38494184 25.87247415 -0.20086624 25.16252468 -1.78515625 24.44921875 C-3.4666567 23.71118462 -5.16188668 23.00340993 -6.87109375 22.33203125 C-10.44938123 20.89249031 -12.87866178 19.88404099 -15.4375 16.9375 C-16.58241246 13.73174512 -16.85851014 11.69707099 -16.375 8.3125 C-12.24530093 0.64305887 -8.3217728 -0.03574645 0 0 Z " fill="#F6F6F6" transform="translate(112.375,219.6875)"/>
<path d="M0 0 C10.89 0 21.78 0 33 0 C33 2.31 33 4.62 33 7 C29.04 7 25.08 7 21 7 C21 17.89 21 28.78 21 40 C18.03 40 15.06 40 12 40 C12 29.11 12 18.22 12 7 C8.04 7 4.08 7 0 7 C0 4.69 0 2.38 0 0 Z " fill="#F9F9F9" transform="translate(289,220)"/>
<path d="M0 0 C0 0.99 0 1.98 0 3 C-0.88042969 3.03738281 -1.76085937 3.07476562 -2.66796875 3.11328125 C-3.82941406 3.17902344 -4.99085937 3.24476563 -6.1875 3.3125 C-7.33605469 3.37050781 -8.48460938 3.42851562 -9.66796875 3.48828125 C-13.18009915 4.02765884 -15.1489417 4.9236858 -18 7 C-20.32880181 10.21596441 -20.3242679 13.10878524 -20 17 C-19.06978617 19.51873283 -18.46790146 20.7151044 -16.15234375 22.125 C-15.05599609 22.558125 -15.05599609 22.558125 -13.9375 23 C-13.14214844 23.32613281 -12.34679687 23.65226562 -11.52734375 23.98828125 C-10.69332031 24.32214844 -9.85929687 24.65601563 -9 25 C-7.3300154 25.72153533 -5.66316647 26.45038462 -4 27.1875 C-3.2575 27.51105469 -2.515 27.83460938 -1.75 28.16796875 C0 29 0 29 1 30 C1.25 32.4375 1.25 32.4375 1 35 C-2.75803231 37.50535487 -5.65272409 37.74752824 -10 37 C-13.48080485 35.57896018 -16.74103031 33.86990064 -20 32 C-20.66 33.98 -21.32 35.96 -22 38 C-14.53177302 42.53355784 -6.58297295 43.28414117 2 42 C6.23655589 39.73226737 6.23655589 39.73226737 9 36 C9.2265076 34.52630241 9.40907705 33.04558856 9.5625 31.5625 C9.64628906 30.78003906 9.73007813 29.99757812 9.81640625 29.19140625 C10.04174324 26.86825945 10.04174324 26.86825945 10 24 C4.58336888 19.35717332 -2.37929253 17.39681398 -9 15 C-8.67 13.68 -8.34 12.36 -8 11 C-2.13190493 11.52393706 2.54873741 12.76108858 8 15 C9.32 12.36 10.64 9.72 12 7 C12.33 7 12.66 7 13 7 C13.14935324 11.00151808 13.2576761 15.00193764 13.32958984 19.00561523 C13.35959295 20.36462697 13.40041185 21.72344781 13.45263672 23.08178711 C13.9296807 35.81699058 13.9296807 35.81699058 10.171875 40.3125 C5.28437594 44.96552091 0.71328472 46.16995544 -5.875 46.4375 C-13.70150128 46.24159258 -19.51931397 43.18108776 -26 39 C-24.7702107 34.93223538 -23.238962 31.60074162 -21 28 C-20.29875 28.3609375 -19.5975 28.721875 -18.875 29.09375 C-12.90482227 32.01394563 -8.64864975 33.62723111 -2 33 C-2.33 32.01 -2.66 31.02 -3 30 C-5.85252384 28.88792075 -5.85252384 28.88792075 -9.25 28.0625 C-14.74912901 26.62551041 -18.823318 24.90224266 -22.3125 20.25 C-23.8407498 15.24845519 -23.64813729 11.40429746 -21.5 6.75 C-15.30340382 -0.0662558 -8.89114621 -0.58838468 0 0 Z " fill="#1C1C1C" transform="translate(117,217)"/>
<path d="M0 0 C2.97 0 5.94 0 9 0 C9 10.89 9 21.78 9 33 C14.61 33 20.22 33 26 33 C26 35.31 26 37.62 26 40 C17.42 40 8.84 40 0 40 C0 26.8 0 13.6 0 0 Z " fill="#F9F9F9" transform="translate(189,220)"/>
<path d="M0 0 C2.97 0 5.94 0 9 0 C9 10.89 9 21.78 9 33 C14.61 33 20.22 33 26 33 C25 39 25 39 24 40 C22.21928754 40.08726223 20.4351686 40.10699041 18.65234375 40.09765625 C17.19429321 40.09390991 17.19429321 40.09390991 15.70678711 40.09008789 C14.46292236 40.08098389 13.21905762 40.07187988 11.9375 40.0625 C7.998125 40.041875 4.05875 40.02125 0 40 C0 26.8 0 13.6 0 0 Z " fill="#F8F8F8" transform="translate(219,220)"/>
<path d="M0 0 C3.96 0 7.92 0 12 0 C12 12.54 12 25.08 12 38 C8.04 38 4.08 38 0 38 C0 25.46 0 12.92 0 0 Z " fill="#2B2B2B" transform="translate(86,166)"/>
<path d="M0 0 C3.63 0 7.26 0 11 0 C11 12.54 11 25.08 11 38 C7.37 38 3.74 38 0 38 C0 25.46 0 12.92 0 0 Z " fill="#2A2A2A" transform="translate(403,166)"/>
<path d="M0 0 C3.4121353 2.12310641 5.74948744 4.13477936 7 8 C7.52055293 11.99090581 7.16996586 13.69523363 5.1875 17.25 C2.4993744 20.62935789 0.99871901 21.86809372 -3.3125 22.4375 C-8.19797847 21.85786696 -9.59886657 20.4821128 -13 17 C-14.21762731 13.34711807 -14.39075851 10.84245864 -14 7 C-10.39095878 0.9535093 -6.92253849 -0.5866558 0 0 Z " fill="#F7F7F7" transform="translate(348,229)"/>
<path d="M0 0 C2.97 0 5.94 0 9 0 C9 13.2 9 26.4 9 40 C6.03 40 3.06 40 0 40 C0 26.8 0 13.6 0 0 Z " fill="#F2F2F2" transform="translate(173,220)"/>
<path d="M0 0 C0.33 0 0.66 0 1 0 C1 12.54 1 25.08 1 38 C-1.39662098 35.00422378 -3.65096669 32.15394163 -5.796875 29.01171875 C-6.52197266 27.95307617 -6.52197266 27.95307617 -7.26171875 26.87304688 C-7.99841797 25.79120117 -7.99841797 25.79120117 -8.75 24.6875 C-9.25660156 23.94693359 -9.76320312 23.20636719 -10.28515625 22.44335938 C-11.52519457 20.63009579 -12.76342265 18.81562479 -14 17 C-9.67494009 11.03728711 -5.13535962 5.29469059 0 0 Z " fill="#FAFAFA" transform="translate(170,220)"/>
<path d="M0 0 C4.67198419 3.26712181 8.12671417 6.87484833 9.234375 12.5625 C8.244375 12.5625 7.254375 12.5625 6.234375 12.5625 C5.71875 11.49 5.203125 10.4175 4.671875 9.3125 C1.79312253 4.23355815 -2.28972088 2.38780137 -7.765625 0.5625 C-15.60782978 -0.08395202 -21.31375337 -0.10481139 -27.765625 4.5625 C-31.01554264 6.41959579 -31.7676324 6.5625 -35.765625 6.5625 C-35.765625 4.2525 -35.765625 1.9425 -35.765625 -0.4375 C-46.655625 -0.4375 -57.545625 -0.4375 -68.765625 -0.4375 C-68.765625 1.8725 -68.765625 4.1825 -68.765625 6.5625 C-69.425625 6.5625 -70.085625 6.5625 -70.765625 6.5625 C-71.095625 7.2225 -71.425625 7.8825 -71.765625 8.5625 C-71.765625 4.9325 -71.765625 1.3025 -71.765625 -2.4375 C-58.895625 -2.4375 -46.025625 -2.4375 -32.765625 -2.4375 C-32.270625 0.5325 -32.270625 0.5325 -31.765625 3.5625 C-30.734375 2.77875 -29.703125 1.995 -28.640625 1.1875 C-19.64832981 -5.13576734 -9.5469033 -5.35113051 0 0 Z " fill="#171717" transform="translate(357.765625,220.4375)"/>
<path d="M0 0 C12.35611219 -0.49424449 12.35611219 -0.49424449 15.38671875 1.83203125 C17 4 17 4 17.5625 6.9375 C17 10 17 10 15.25 12.875 C10.21579984 16.16659241 5.93639972 15.32617581 0 15 C0 10.05 0 5.1 0 0 Z " fill="#EDEDED" transform="translate(379,227)"/>
<path d="M0 0 C-0.66 1.65 -1.32 3.3 -2 5 C-2.66 5 -3.32 5 -4 5 C-4 4.34 -4 3.68 -4 3 C-7.63 3 -11.26 3 -15 3 C-15 13.89 -15 24.78 -15 36 C-19.29 36 -23.58 36 -28 36 C-28 25.11 -28 14.22 -28 3 C-31.96 3 -35.92 3 -40 3 C-40 2.34 -40 1.68 -40 1 C-35.38 1 -30.76 1 -26 1 C-26 11.89 -26 22.78 -26 34 C-23.03 34 -20.06 34 -17 34 C-17 23.11 -17 12.22 -17 1 C-4 0 -4 0 0 0 Z " fill="#040404" transform="translate(327,226)"/>
<path d="M0 0 C2.83533395 2.83533395 3.9657541 6.31494035 5.4765625 9.96484375 C5.80667328 10.75395645 6.13678406 11.54306915 6.47689819 12.35609436 C7.17358182 14.02535295 7.86774176 15.69566673 8.55957031 17.36694336 C9.62061694 19.92692502 10.6925475 22.48215122 11.765625 25.03710938 C12.44076585 26.65857882 13.11526663 28.28031495 13.7890625 29.90234375 C14.11089508 30.66804184 14.43272766 31.43373993 14.76431274 32.22264099 C17 37.65532501 17 37.65532501 17 41 C12.38 41 7.76 41 3 41 C2.01 37.535 2.01 37.535 1 34 C-5.27 34 -11.54 34 -18 34 C-18 33.01 -18 32.02 -18 31 C-11.4 31 -4.8 31 2 31 C5 37 5 37 5 39 C7.97 39 10.94 39 14 39 C13.65219482 38.18845459 13.30438965 37.37690918 12.94604492 36.54077148 C9.29736328 28.02718099 5.64868164 19.51359049 2 11 C1.7162149 10.37457306 1.43242981 9.74914612 1.14004517 9.10476685 C-1.03304092 4.25771917 -1.03304092 4.25771917 -0.6875 1.5625 C-0.460625 1.046875 -0.23375 0.53125 0 0 Z " fill="#202020" transform="translate(275,221)"/>
<path d="M0 0 C3.08636169 0.1102272 4.3414555 1.27937268 6.75 3.25 C9.96879932 7.33310654 9.51575161 11.8908608 9.46875 16.87890625 C8.84671278 21.02063741 6.99428979 23.60577242 4.6015625 26.9609375 C3.70090809 29.16717817 3.70090809 29.16717817 5.3359375 31.7265625 C6.00882812 32.68304688 6.68171875 33.63953125 7.375 34.625 C11 39.84555985 11 39.84555985 11 42 C6.05 42 1.1 42 -4 42 C-9 33.25 -9 33.25 -9 31 C-10.11375 31.061875 -11.2275 31.12375 -12.375 31.1875 C-13.57125 31.125625 -14.7675 31.06375 -16 31 C-16.66 30.01 -17.32 29.02 -18 28 C-14.7 28 -11.4 28 -8 28 C-6.02 31.63 -4.04 35.26 -2 39 C0.97 39 3.94 39 7 39 C6.48308594 38.32453125 5.96617187 37.6490625 5.43359375 36.953125 C4.77488281 36.06109375 4.11617188 35.1690625 3.4375 34.25 C2.77621094 33.36828125 2.11492187 32.4865625 1.43359375 31.578125 C0 29 0 29 0.16015625 26.8046875 C1.30551523 24.3434975 3.03358421 22.8435148 5 21 C6.97678876 17.04642247 6.57146342 12.29839877 6 8 C3.81145577 4.89138486 3.81145577 4.89138486 1 3 C0.34 2.34 -0.32 1.68 -1 1 C-0.67 0.67 -0.34 0.34 0 0 Z " fill="#161616" transform="translate(397,220)"/>
<path d="M0 0 C0.99 0.33 1.98 0.66 3 1 C2.67 1.66 2.34 2.32 2 3 C1.2688183 9.78954437 1.18501981 15.70238778 5.41015625 21.30859375 C10.44870415 26.66901449 14.57021978 28.31616504 22 28.5625 C29.36825689 28.27849866 34.04345605 26.80093637 39.375 21.75 C41.47164226 18.20183618 42.17954299 15.03391363 43 11 C44.125 12.625 44.125 12.625 45 15 C44.03990974 19.907128 41.71248468 23.68861291 38 27 C31.08512258 31.40928419 24.00790286 33.08250502 15.83203125 31.609375 C9.41845023 29.88731194 4.91010961 26.3541309 1 21 C-0.85433842 16.65127732 -1.24711755 12.95436704 -1.1875 8.25 C-1.17783203 6.55617187 -1.17783203 6.55617187 -1.16796875 4.828125 C-1 2 -1 2 0 0 Z " fill="#272727" transform="translate(322,231)"/>
<path d="M0 0 C3.12633283 1.67576738 5.23152913 3.98701567 7.375 6.8125 C8.84642784 11.96249742 8.70719826 15.66137471 6.25 20.3125 C1.67856439 25.77282587 1.67856439 25.77282587 -2.078125 26.28125 C-6.8134816 26.46940986 -10.31272403 26.2534788 -14 23 C-17.22883266 18.21242054 -17.53256641 14.59194732 -17 9 C-13.71437196 1.39117716 -8.02549243 -1.65313841 0 0 Z M-14 7 C-15.53214888 10.06429776 -15.22938548 12.6165642 -15 16 C-13.35265048 19.62416894 -11.54597317 22.12851416 -8 24 C-3.8517827 24.52795493 -1.76521126 24.47613145 1.8125 22.25 C4.79730241 19.17991752 5.82110645 17.37151719 6.375 13.125 C5.89861498 9.15512486 4.46959574 7.10463464 2 4 C-4.56206947 -0.37471298 -9.00255099 2.00255099 -14 7 Z " fill="#131313" transform="translate(349,227)"/>
<path d="M0 0 C0.33 0 0.66 0 1 0 C1 7.26 1 14.52 1 22 C0.34 21.01 -0.32 20.02 -1 19 C-4.84247951 14.53935194 -8.42354973 12.64196139 -13.8125 10.6875 C-14.50537109 10.42388672 -15.19824219 10.16027344 -15.91210938 9.88867188 C-17.60355962 9.2470873 -19.30118778 8.62182938 -21 8 C-20.67 6.68 -20.34 5.36 -20 4 C-14.13190493 4.52393706 -9.45126259 5.76108858 -4 8 C-2.68 5.36 -1.36 2.72 0 0 Z " fill="#E4E4E4" transform="translate(129,224)"/>
<path d="M0 0 C8.58 0 17.16 0 26 0 C26 13.53 26 27.06 26 41 C25.67 41 25.34 41 25 41 C25 28.13 25 15.26 25 2 C21.7 2 18.4 2 15 2 C15 14.87 15 27.74 15 41 C14.67 41 14.34 41 14 41 C13.67 28.13 13.34 15.26 13 2 C10.69 4.64 8.38 7.28 6 10 C5.34 9.34 4.68 8.68 4 8 C5.65 6.02 7.3 4.04 9 2 C5.7 2 2.4 2 -1 2 C-0.67 1.34 -0.34 0.68 0 0 Z " fill="#040404" transform="translate(158,218)"/>
<path d="M0 0 C4.29 0 8.58 0 13 0 C13 10.89 13 21.78 13 33 C17.95 33 22.9 33 28 33 C28 33.33 28 33.66 28 34 C22.39 34 16.78 34 11 34 C11 23.44 11 12.88 11 2 C7.7 2 4.4 2 1 2 C1 15.2 1 28.4 1 42 C0.67 42 0.34 42 0 42 C0 28.14 0 14.28 0 0 Z " fill="#070707" transform="translate(187,218)"/>
<path d="M0 0 C2.49247522 3.02096567 3.87956332 5.87923005 5.1875 9.5625 C5.53167969 10.51253906 5.87585938 11.46257812 6.23046875 12.44140625 C7 15 7 15 7 18 C2.38 18 -2.24 18 -7 18 C-5.02989474 11.79416842 -2.74844552 5.90148454 0 0 Z " fill="#1E1E1E" transform="translate(267,228)"/>
<path d="M0 0 C0.33 0 0.66 0 1 0 C1 13.2 1 26.4 1 40 C-4 39 -4 39 -5.8527832 36.95874023 C-6.41312256 36.08419189 -6.97346191 35.20964355 -7.55078125 34.30859375 C-8.16630859 33.36435547 -8.78183594 32.42011719 -9.41601562 31.44726562 C-10.35477539 29.95743164 -10.35477539 29.95743164 -11.3125 28.4375 C-11.95767578 27.44041016 -12.60285156 26.44332031 -13.26757812 25.41601562 C-14.85888357 22.95243905 -16.43546845 20.48063303 -18 18 C-17.09373216 16.7010161 -16.17450463 15.41106833 -15.25 14.125 C-14.73953125 13.40570313 -14.2290625 12.68640625 -13.703125 11.9453125 C-11.92496453 9.91429435 -10.47298393 9.02144988 -8 8 C-9.47665555 12.30691203 -10.95632305 14.19540381 -14 18 C-9.71 24.27 -5.42 30.54 -1 37 C-0.67 24.79 -0.34 12.58 0 0 Z " fill="#2B2B2B" transform="translate(171,219)"/>
<path d="M0 0 C4.59945605 0.09266303 8.17257681 1.51146149 12.375 3.3125 C12.705 2.6525 13.035 1.9925 13.375 1.3125 C14.365 1.6425 15.355 1.9725 16.375 2.3125 C15.385 3.9625 14.395 5.6125 13.375 7.3125 C12.63894531 7.02375 11.90289062 6.735 11.14453125 6.4375 C10.16871094 6.06625 9.19289063 5.695 8.1875 5.3125 C7.22457031 4.94125 6.26164062 4.57 5.26953125 4.1875 C2.45317642 3.33613228 0.29335561 3.14177353 -2.625 3.3125 C-2.955 4.3025 -3.285 5.2925 -3.625 6.3125 C-2.9959375 6.48265625 -2.366875 6.6528125 -1.71875 6.828125 C12.60948276 10.88491379 12.60948276 10.88491379 16.375 16.0625 C16.705 16.805 17.035 17.5475 17.375 18.3125 C16.385 18.3125 15.395 18.3125 14.375 18.3125 C13.53001953 17.42111328 13.53001953 17.42111328 12.66796875 16.51171875 C9.65898657 13.6257614 6.55564643 12.54197086 2.6875 11.125 C-4.53547297 8.40202703 -4.53547297 8.40202703 -5.625 7.3125 C-5.8125 4.875 -5.8125 4.875 -5.625 2.3125 C-3.625 0.3125 -3.625 0.3125 0 0 Z " fill="#141414" transform="translate(111.625,225.6875)"/>
<path d="M0 0 C1.79244141 0.01740234 1.79244141 0.01740234 3.62109375 0.03515625 C5.41740234 0.04869141 5.41740234 0.04869141 7.25 0.0625 C8.17683594 0.07410156 9.10367187 0.08570313 10.05859375 0.09765625 C10.38859375 1.41765625 10.71859375 2.73765625 11.05859375 4.09765625 C10.39859375 4.09765625 9.73859375 4.09765625 9.05859375 4.09765625 C9.05859375 3.43765625 9.05859375 2.77765625 9.05859375 2.09765625 C5.75859375 2.42765625 2.45859375 2.75765625 -0.94140625 3.09765625 C-1.28921143 3.94062256 -1.6370166 4.78358887 -1.99536133 5.65209961 C-3.28940093 8.77370338 -4.5930833 11.89089793 -5.90356445 15.00561523 C-6.4690212 16.35521096 -7.03056945 17.70645113 -7.58813477 19.05932617 C-8.38970457 21.00233137 -9.20508852 22.93901266 -10.0234375 24.875 C-10.51046143 26.04281006 -10.99748535 27.21062012 -11.49926758 28.41381836 C-12.94140625 31.09765625 -12.94140625 31.09765625 -15.94140625 32.09765625 C-15.28907051 28.10440328 -14.05379272 24.67621812 -12.47265625 20.95703125 C-11.98410156 19.80460937 -11.49554688 18.6521875 -10.9921875 17.46484375 C-10.48042969 16.27117187 -9.96867188 15.0775 -9.44140625 13.84765625 C-8.92964844 12.63851562 -8.41789063 11.429375 -7.890625 10.18359375 C-3.60498397 0.11968738 -3.60498397 0.11968738 0 0 Z " fill="#1F1F1F" transform="translate(263.94140625,217.90234375)"/>
<path d="M0 0 C12.35611219 -0.49424449 12.35611219 -0.49424449 15.38671875 1.83203125 C17 4 17 4 17.5625 6.9375 C17 10 17 10 15.25 12.875 C10.21579984 16.16659241 5.93639972 15.32617581 0 15 C0 10.05 0 5.1 0 0 Z M2 2 C2 5.63 2 9.26 2 13 C8.42418376 13.53165635 8.42418376 13.53165635 14 11 C15.08223366 8.08995097 15.08223366 8.08995097 15 5 C13.88979795 3.21192962 13.88979795 3.21192962 12 2 C9.48710325 1.63786432 9.48710325 1.63786432 6.8125 1.8125 C5.224375 1.874375 3.63625 1.93625 2 2 Z " fill="#191919" transform="translate(379,227)"/>
<path d="M0 0 C0.66 0 1.32 0 2 0 C3.60127074 3.20254147 3.40701607 5.45314564 3 9 C0.49775289 13.36999584 -3.07225993 16.80736598 -7.85546875 18.578125 C-12.51348394 19.49445586 -17.27961512 19.20927815 -22 19 C-20.2330269 16.77207739 -19.3737381 16.05573802 -16.51171875 15.62890625 C-15.57972656 15.60699219 -14.64773437 15.58507812 -13.6875 15.5625 C-8.52322999 15.23417555 -5.89520096 14.38267452 -2 11 C-0.85185003 8.70370006 -0.69230191 6.92301914 -0.4375 4.375 C-0.35371094 3.55773437 -0.26992187 2.74046875 -0.18359375 1.8984375 C-0.09271484 0.95871094 -0.09271484 0.95871094 0 0 Z " fill="#161616" transform="translate(127,244)"/>
<path d="M0 0 C0.33 0 0.66 0 1 0 C1.33 4.62 1.66 9.24 2 14 C3.81527107 12.04417252 5.62728891 10.08550123 7.4375 8.125 C7.95376953 7.56941406 8.47003906 7.01382813 9.00195312 6.44140625 C11.82104736 3.45250685 11.82104736 3.45250685 14 0 C14.66 0.33 15.32 0.66 16 1 C14.65800312 3.92093506 13.13508255 6.2113951 11.03125 8.63671875 C10.17466797 9.62575195 10.17466797 9.62575195 9.30078125 10.63476562 C8.40939453 11.65086914 8.40939453 11.65086914 7.5 12.6875 C6.90574219 13.37650391 6.31148437 14.06550781 5.69921875 14.77539062 C1.26150098 19.86924951 1.26150098 19.86924951 -1 21 C-0.67 14.07 -0.34 7.14 0 0 Z " fill="#191919" transform="translate(142,218)"/>
<path d="M0 0 C8.17386657 -0.69928516 14.1950234 0.2412751 21 5 C24.60647043 8.28394056 27.05502254 11.14770003 28 16 C27.01 16 26.02 16 25 16 C24.484375 14.9275 23.96875 13.855 23.4375 12.75 C21.12998205 8.77013455 18.30213818 6.59398692 14 5 C11.44883093 4.41822339 8.92325664 3.95302337 6.33203125 3.58984375 C3.64778374 2.91091348 2.094885 1.77704038 0 0 Z " fill="#1A1A1A" transform="translate(339,217)"/>
<path d="M0 0 C0.99 0.33 1.98 0.66 3 1 C2.67 1.66 2.34 2.32 2 3 C1.12020727 11.16950394 1.87663541 16.5569809 7 23 C7.66 23.99 8.32 24.98 9 26 C6 26 6 26 3.4375 23.875 C-0.66445268 19.03679941 -1.26637028 14.47358239 -1.1875 8.25 C-1.17783203 6.55617187 -1.17783203 6.55617187 -1.16796875 4.828125 C-1 2 -1 2 0 0 Z " fill="#1D1D1D" transform="translate(322,231)"/>
<path d="M0 0 C0 0.99 0 1.98 0 3 C-0.88042969 3.03738281 -1.76085937 3.07476562 -2.66796875 3.11328125 C-3.82941406 3.17902344 -4.99085937 3.24476563 -6.1875 3.3125 C-7.33605469 3.37050781 -8.48460938 3.42851562 -9.66796875 3.48828125 C-13.19901716 4.03056418 -15.15108874 4.88366592 -18 7 C-19.80796103 9.56610666 -19.80796103 9.56610666 -21 12 C-21.75 10.3125 -21.75 10.3125 -22 8 C-19.79399012 4.23139978 -17.2386683 2.08184052 -13.1484375 0.4921875 C-8.8245015 -0.49838693 -4.40456791 -0.21505124 0 0 Z " fill="#3A3A3A" transform="translate(117,217)"/>
<path d="M0 0 C6.6 0 13.2 0 20 0 C20 0.99 20 1.98 20 3 C13.4 3 6.8 3 0 3 C0 2.01 0 1.02 0 0 Z " fill="#3F3F3F" transform="translate(257,252)"/>
<path d="M0 0 C3.56866963 2.05198504 5.67042358 4.77834717 7.5 8.4375 C7.63415472 11.1098621 7.54318541 13.76000488 7.5 16.4375 C6.51 16.7675 5.52 17.0975 4.5 17.4375 C4.5825 16.24125 4.665 15.045 4.75 13.8125 C4.72599635 9.29981332 3.62973207 6.80798069 0.5 3.4375 C-3.11416517 1.99832568 -3.11416517 1.99832568 -6.5 1.4375 C-4.00866765 -0.22338823 -2.97431003 -0.66921976 0 0 Z " fill="#1C1C1C" transform="translate(349.5,227.5625)"/>
<path d="M0 0 C-0.53625 0.2475 -1.0725 0.495 -1.625 0.75 C-5.87358821 2.98609906 -9.31207517 4.96811275 -12 9 C-12.45394552 11.27912938 -12.45394552 11.27912938 -12.625 13.6875 C-12.69976562 14.49574219 -12.77453125 15.30398437 -12.8515625 16.13671875 C-12.90054687 16.75160156 -12.94953125 17.36648437 -13 18 C-13.66 17.67 -14.32 17.34 -15 17 C-15.44365036 8.27487631 -15.44365036 8.27487631 -12 4 C-8.10103099 -0.0072737 -5.51662663 -0.4326766 0 0 Z " fill="#111111" transform="translate(347,227)"/>
<path d="M0 0 C4.62 0 9.24 0 14 0 C8.375 7.75 8.375 7.75 5 10 C5 6.09161134 6.50567876 4.88405893 9 2 C5.7 2 2.4 2 -1 2 C-0.67 1.34 -0.34 0.68 0 0 Z " fill="#0E0E0E" transform="translate(158,218)"/>
<path d="M0 0 C2 3 2 3 3 7 C5.97 7 8.94 7 12 7 C12 6.34 12 5.68 12 5 C12.99 5.33 13.98 5.66 15 6 C15 6.99 15 7.98 15 9 C10.38 9 5.76 9 1 9 C-1.125 2.25 -1.125 2.25 0 0 Z " fill="#141414" transform="translate(277,253)"/>
<path d="M0 0 C4.75 0.875 4.75 0.875 7 2 C8.87056791 2.2275015 10.74685958 2.40962811 12.625 2.5625 C13.62789063 2.64628906 14.63078125 2.73007812 15.6640625 2.81640625 C16.43492187 2.87699219 17.20578125 2.93757813 18 3 C17.67 3.99 17.34 4.98 17 6 C11.32806491 6.36203841 6.10916517 5.66422132 1 3 C0.67 2.01 0.34 1.02 0 0 Z " fill="#232323" transform="translate(330,257)"/>
<path d="M0 0 C2.97903734 2.97903734 4 5.80285329 4 10 C1.36 10 -1.28 10 -4 10 C-2.68 6.7 -1.36 3.4 0 0 Z " fill="#EBEBEB" transform="translate(267,234)"/>
<path d="M0 0 C6.20970773 -0.33266291 10.28264895 0.54970669 16 3 C16.33 2.34 16.66 1.68 17 1 C17.99 1.33 18.98 1.66 20 2 C19.01 3.65 18.02 5.3 17 7 C13.37 5.68 9.74 4.36 6 3 C6 2.67 6 2.34 6 2 C3.03 1.505 3.03 1.505 0 1 C0 0.67 0 0.34 0 0 Z " fill="#1E1E1E" transform="translate(108,226)"/>
<path d="M0 0 C7.24539726 -0.53449652 11.72912263 0.28392452 18 4 C17.34 5.65 16.68 7.3 16 9 C15.34 9 14.68 9 14 9 C14 7.68 14 6.36 14 5 C7.11175931 2.59009896 7.11175931 2.59009896 0 1 C0 0.67 0 0.34 0 0 Z " fill="#181818" transform="translate(112,218)"/>
<path d="M0 0 C0.66 0 1.32 0 2 0 C0.6302836 3.99500618 -1.25722422 6.80009492 -4 10 C-3.34 11.32 -2.68 12.64 -2 14 C-3.875 13.75 -3.875 13.75 -6 13 C-7.1328125 10.953125 -7.1328125 10.953125 -8 9 C-6.71520959 7.49410612 -5.42195918 5.99542625 -4.125 4.5 C-3.04605469 3.24703125 -3.04605469 3.24703125 -1.9453125 1.96875 C-1.30335938 1.3190625 -0.66140625 0.669375 0 0 Z " fill="#202020" transform="translate(161,227)"/>
<path d="M0 0 C4.29 0 8.58 0 13 0 C13.33 1.32 13.66 2.64 14 4 C13.34 4 12.68 4 12 4 C12 3.34 12 2.68 12 2 C10.3954444 2.14148989 8.79136233 2.28835686 7.1875 2.4375 C6.29417969 2.51871094 5.40085937 2.59992188 4.48046875 2.68359375 C1.87256441 2.93489767 1.87256441 2.93489767 -1 4 C-0.67 2.68 -0.34 1.36 0 0 Z " fill="#0D0D0D" transform="translate(261,218)"/>
<path d="M0 0 C3.26983984 0.11677999 4.35689675 1.32517259 6.8125 3.5625 C8.41247019 5.5673407 8.9823982 6.59149152 9.09375 9.17578125 C8.8125 11.375 8.8125 11.375 8 15 C7.67 15 7.34 15 7 15 C6.9071875 13.4221875 6.9071875 13.4221875 6.8125 11.8125 C5.85613815 7.32495595 4.43141143 5.92925366 1 3 C0.34 2.34 -0.32 1.68 -1 1 C-0.67 0.67 -0.34 0.34 0 0 Z " fill="#232323" transform="translate(397,220)"/>
<path d="M0 0 C0 0.33 0 0.66 0 1 C-0.96421875 1.19335938 -1.9284375 1.38671875 -2.921875 1.5859375 C-4.81679688 1.97652344 -4.81679688 1.97652344 -6.75 2.375 C-8.00296875 2.63023437 -9.2559375 2.88546875 -10.546875 3.1484375 C-13.36340848 3.8430125 -15.51518752 4.55680083 -18 6 C-18 5.01 -18 4.02 -18 3 C-12.27544841 -0.81636773 -6.70250505 -0.29282789 0 0 Z " fill="#161616" transform="translate(348,218)"/>
<path d="M0 0 C0.99 0.66 1.98 1.32 3 2 C3 2.99 3 3.98 3 5 C-1.62 5 -6.24 5 -11 5 C-11 4.34 -11 3.68 -11 3 C-6.94952424 1.64984141 -4.2079832 2.37915002 0 3 C0 2.01 0 1.02 0 0 Z " fill="#0C0C0C" transform="translate(271,241)"/>
<path d="M0 0 C1.72880982 -0.05449838 3.45812712 -0.09301688 5.1875 -0.125 C6.15042969 -0.14820313 7.11335938 -0.17140625 8.10546875 -0.1953125 C11.12812778 0.0086456 13.26769985 0.73125368 16 2 C16 2.99 16 3.98 16 5 C14.08135229 4.74357696 12.16509006 4.46926564 10.25 4.1875 C9.18265625 4.03667969 8.1153125 3.88585937 7.015625 3.73046875 C3.94548906 2.98679593 2.33919522 2.07234528 0 0 Z " fill="#4F4F4F" transform="translate(339,217)"/>
<path d="M0 0 C0 0.66 0 1.32 0 2 C-3.4766338 4.14336161 -6.21229195 4.21277626 -10.25 4.125 C-11.32765625 4.10695313 -12.4053125 4.08890625 -13.515625 4.0703125 C-14.33546875 4.04710937 -15.1553125 4.02390625 -16 4 C-14.20244296 1.72715669 -13.26360403 1.05131074 -10.37109375 0.48828125 C-9.40300781 0.43027344 -8.43492188 0.37226563 -7.4375 0.3125 C-6.46683594 0.24675781 -5.49617188 0.18101562 -4.49609375 0.11328125 C-2.99846172 0.0453136 -1.49917354 0 0 0 Z " fill="#3E3E3E" transform="translate(121,259)"/>
<path d="M0 0 C0.99 0.33 1.98 0.66 3 1 C2.67 1.66 2.34 2.32 2 3 C1.72641885 5.85306062 1.55374758 8.70570456 1.37890625 11.56640625 C1.25386719 12.36949219 1.12882812 13.17257813 1 14 C0.01 14.495 0.01 14.495 -1 15 C-1.02693575 12.87506859 -1.04636628 10.75004088 -1.0625 8.625 C-1.07410156 7.44164062 -1.08570313 6.25828125 -1.09765625 5.0390625 C-1 2 -1 2 0 0 Z " fill="#111111" transform="translate(322,231)"/>
<path d="M0 0 C0.65226562 0.13277344 1.30453125 0.26554687 1.9765625 0.40234375 C6.6408287 1.34482822 11.29868454 2.25768703 16 3 C16 3.33 16 3.66 16 4 C14.08364783 4.05423638 12.16685075 4.09289963 10.25 4.125 C8.64898437 4.15980469 8.64898437 4.15980469 7.015625 4.1953125 C4.07529894 4.00487687 2.47638122 3.52670104 0 2 C0 1.34 0 0.68 0 0 Z " fill="#131313" transform="translate(98,258)"/>
<path d="M0 0 C9.59453303 1.55808656 9.59453303 1.55808656 13 6 C10.02277453 5.29666462 7.14743457 4.41751463 4.25 3.4375 C3.45078125 3.16808594 2.6515625 2.89867187 1.828125 2.62109375 C0.92320313 2.31365234 0.92320313 2.31365234 0 2 C0 1.34 0 0.68 0 0 Z " fill="#181818" transform="translate(105,242)"/>
<path d="M0 0 C0 0.66 0 1.32 0 2 C-1.24460783 2.67667998 -2.49596896 3.34094719 -3.75 4 C-4.79414063 4.556875 -4.79414063 4.556875 -5.859375 5.125 C-8 6 -8 6 -12 6 C-12 5.34 -12 4.68 -12 4 C-10.3767313 3.3291288 -8.75132422 2.66342971 -7.125 2 C-6.22007812 1.62875 -5.31515625 1.2575 -4.3828125 0.875 C-2 0 -2 0 0 0 Z " fill="#191919" transform="translate(360,256)"/>
<path d="M0 0 C0.33 0 0.66 0 1 0 C1 5.28 1 10.56 1 16 C0.67 16 0.34 16 0 16 C-0.33 13.03 -0.66 10.06 -1 7 C-1.99 7.66 -2.98 8.32 -4 9 C-2.80100302 5.9168649 -1.52299523 2.93720508 0 0 Z " fill="#E4E4E4" transform="translate(367,246)"/>
<path d="M0 0 C0.598125 0.78375 1.19625 1.5675 1.8125 2.375 C3.91085249 5.14574323 3.91085249 5.14574323 7 7 C6.67 7.99 6.34 8.98 6 10 C2.91798591 8.45899296 1.27706844 7.51635481 -0.375 4.4375 C-1 2 -1 2 0 0 Z " fill="#242424" transform="translate(334,243)"/>
<path d="M0 0 C0.66 0 1.32 0 2 0 C1.625 2.4375 1.625 2.4375 1 5 C-2.21451269 6.60725635 -5.43612536 6.05748185 -9 6 C-6.56680171 3.05454944 -4.67586393 2.67713283 -1 2 C-0.67 1.34 -0.34 0.68 0 0 Z " fill="#414141" transform="translate(116,248)"/>
<path d="M0 0 C3.3 0 6.6 0 10 0 C10.66 1.32 11.32 2.64 12 4 C11.01 4.33 10.02 4.66 9 5 C9 4.34 9 3.68 9 3 C7.88625 3.061875 6.7725 3.12375 5.625 3.1875 C4.42875 3.125625 3.2325 3.06375 2 3 C1.34 2.01 0.68 1.02 0 0 Z " fill="#4A4A4A" transform="translate(379,248)"/>
<path d="M0 0 C0.99 0.33 1.98 0.66 3 1 C3 1.66 3 2.32 3 3 C4.9600281 4.63676257 4.9600281 4.63676257 7 6 C6.34 6.66 5.68 7.32 5 8 C3.02 6.68 1.04 5.36 -1 4 C-0.67 2.68 -0.34 1.36 0 0 Z " fill="#252525" transform="translate(92,252)"/>
<path d="M0 0 C2.64 0 5.28 0 8 0 C7.67 0.99 7.34 1.98 7 3 C4.69 3 2.38 3 0 3 C0 2.01 0 1.02 0 0 Z " fill="#424242" transform="translate(340,260)"/>
<path d="M0 0 C0.66 0 1.32 0 2 0 C3.4783226 2.95664519 3.06032783 5.74229737 3 9 C2.01 8.67 1.02 8.34 0 8 C0 5.36 0 2.72 0 0 Z " fill="#383838" transform="translate(127,244)"/>
<path d="M0 0 C0.99 0.33 1.98 0.66 3 1 C3 3.64 3 6.28 3 9 C2.01 9.33 1.02 9.66 0 10 C0 6.7 0 3.4 0 0 Z " fill="#232323" transform="translate(354,235)"/>
<path d="M0 0 C4.92127034 -0.16682272 8.50343896 -0.24828052 13 2 C13 2.66 13 3.32 13 4 C10.69 3.67 8.38 3.34 6 3 C6 2.67 6 2.34 6 2 C3.03 1.505 3.03 1.505 0 1 C0 0.67 0 0.34 0 0 Z " fill="#272727" transform="translate(108,226)"/>
<path d="M0 0 C0.33 0 0.66 0 1 0 C1.33 1.98 1.66 3.96 2 6 C3.32 5.67 4.64 5.34 6 5 C5.34 6.32 4.68 7.64 4 9 C2.68 9 1.36 9 0 9 C0 6.03 0 3.06 0 0 Z " fill="#424242" transform="translate(324,218)"/>
<path d="M0 0 C0.99 0.33 1.98 0.66 3 1 C4.6875 4.5625 4.6875 4.5625 6 8 C5.01 8 4.02 8 3 8 C0 2.25 0 2.25 0 0 Z " fill="#171717" transform="translate(389,252)"/>
<path d="M0 0 C2.18975773 3.28463659 2.99806563 6.20696275 4 10 C3.01 9.67 2.02 9.34 1 9 C-0.25 5.5625 -0.25 5.5625 -1 2 C-0.67 1.34 -0.34 0.68 0 0 Z " fill="#242424" transform="translate(269,232)"/>
<path d="M0 0 C1.62490954 -0.02698189 3.24994633 -0.04638757 4.875 -0.0625 C5.77992187 -0.07410156 6.68484375 -0.08570313 7.6171875 -0.09765625 C10 0 10 0 12 1 C12 1.66 12 2.32 12 3 C6.06 2.01 6.06 2.01 0 1 C0 0.67 0 0.34 0 0 Z " fill="#0E0E0E" transform="translate(112,218)"/>
<path d="M0 0 C1.875 0.125 1.875 0.125 4 1 C5.25 4.0625 5.25 4.0625 6 7 C5.01 7 4.02 7 3 7 C2.01 4.69 1.02 2.38 0 0 Z " fill="#212121" transform="translate(361,226)"/>
<path d="M0 0 C-2.98646769 1.99097846 -5.59687262 2.94124926 -9 4 C-9.66 3.34 -10.32 2.68 -11 2 C-7.36576791 -0.32590854 -4.22911669 -0.16265833 0 0 Z " fill="#1E1E1E" transform="translate(110,218)"/>
<path d="M0 0 C2 2 2 2 2 6 C1.01 6.33 0.02 6.66 -1 7 C-2 4 -2 4 -1.0625 1.8125 C-0.5365625 0.9153125 -0.5365625 0.9153125 0 0 Z " fill="#171717" transform="translate(267,228)"/>
</svg>
